<svg id="Layer_1" version="1.1" viewBox="0 0 150 150" xml:space="preserve" xmlns="http://www.w3.org/2000/svg" enable-background="new 0 0 150 150"><path d="M126.937 125.056c-16.085 19.466-84.27 17.697-102.365 0s-18.096-82.414 0-100.112 86.28-19.466 102.365 0c16.084 19.467 16.084 80.645 0 100.112z" fill="#1dd760" class="fill-efc84a"></path><path d="M52.721 90.39H39.582a2.082 2.082 0 1 1 0-4.164h13.14c3.21 0 6.313-1.344 8.51-3.686l17.17-18.294c2.98-3.177 7.19-5 11.549-5h12.515a2.082 2.082 0 1 1 0 4.165H89.951a11.713 11.713 0 0 0-8.512 3.685L64.27 85.39a15.898 15.898 0 0 1-11.549 5z" fill="#64798a" class="fill-64798a"></path><path d="M99.82 54.444v13.935a.833.833 0 0 0 1.279.704l11.013-6.968a.833.833 0 0 0 0-1.408L101.1 53.74a.833.833 0 0 0-1.279.704z" fill="#3a556a" class="fill-3a556a"></path><path d="M52.721 59.61H39.582a2.082 2.082 0 1 0 0 4.164h13.14c3.21 0 6.313 1.344 8.51 3.686l17.17 18.294c2.98 3.177 7.19 5 11.549 5h12.515a2.082 2.082 0 1 0 0-4.165H89.951a11.713 11.713 0 0 1-8.512-3.685L64.27 64.61a15.898 15.898 0 0 0-11.549-5z" fill="#64798a" class="fill-64798a"></path><path d="M99.82 95.556V81.621a.833.833 0 0 1 1.279-.704l11.013 6.968a.833.833 0 0 1 0 1.408L101.1 96.26a.833.833 0 0 1-1.279-.704z" fill="#3a556a" class="fill-3a556a"></path></svg>