<?xml version="1.0" ?><svg id="Layer_1" style="enable-background:new 0 0 150 150;" version="1.1" viewBox="0 0 150 150" xml:space="preserve" xmlns="http://www.w3.org/2000/svg" xmlns:xlink="http://www.w3.org/1999/xlink"><style type="text/css">
	.st0{fill:#45B39C;}
	.st1{fill:#E56353;}
	.st2{fill:#D15241;}
	.st3{fill:#F6C358;}
	.st4{fill:#FCD462;}
	.st5{fill:#334D5C;}
	.st6{fill:#64798A;}
	.st7{fill:#27A2DB;}
	.st8{fill:#2D93BA;}
	.st9{fill:#EBF0F3;}
	.st10{fill:#D5D6DB;}
	.st11{fill:#EFC84A;}
	.st12{fill:#E1E6E9;}
	.st13{fill:#44C4A1;}
	.st14{fill:#3EA69B;}
	.st15{fill:#1C75A1;}
	.st16{fill:#EA8953;}
	.st17{fill:#3A556A;}
	.st18{fill:#E05B49;}
	.st19{fill:#DC8744;}
	.st20{fill:#31978C;}
	.st21{fill:#CE412D;}
	.st22{fill:none;}
	.st23{fill:#2F4859;}
</style><g><path class="st11" d="M126.9368439,125.0556107c-16.084404,19.4666672-84.2693481,17.6973343-102.3650894,0   s-18.0957298-82.4138794,0-100.1112213s86.2806854-19.466671,102.3650894,0   C143.0211029,44.4110603,143.0211029,105.5889359,126.9368439,125.0556107z"/><g><g><g><g><path class="st6" d="M52.721096,90.3904266H39.5823936c-1.1502075,0-2.0824127-0.9322052-2.0824127-2.0824127       s0.9322052-2.0824051,2.0824127-2.0824051H52.721096c3.2114677,0,6.3139343-1.343399,8.5118523-3.6853027       l17.1684952-18.2942963c2.9812622-3.1772995,7.1908188-4.9998169,11.5492401-4.9998169h12.5156097       c1.1502075,0,2.0824127,0.9322052,2.0824127,2.0824089c0,1.1502075-0.9322052,2.0824127-2.0824127,2.0824127H89.9506836       c-3.2122803,0-6.314743,1.3429909-8.5118484,3.6848869L64.27034,85.3906097       C61.2882614,88.5679092,57.0787048,90.3904266,52.721096,90.3904266z"/></g></g><g><path class="st17" d="M99.8204651,54.4438362l-0.0001907,13.9350319      c-0.0000076,0.6562881,0.7236557,1.0548096,1.2782822,0.7039413l11.0137787-6.967514      c0.516861-0.326973,0.516861-1.080883,0.0000076-1.4078598l-11.013588-6.967514      C100.5441437,53.3890533,99.8204803,53.7875557,99.8204651,54.4438362z"/></g></g><g><g><g><path class="st6" d="M52.721096,59.609539H39.5823936c-1.1502075,0-2.0824127,0.9322052-2.0824127,2.0824089       c0,1.1502075,0.9322052,2.0824127,2.0824127,2.0824127H52.721096c3.2114677,0,6.3139343,1.343399,8.5118523,3.6852951       L78.4014435,85.753952c2.9812622,3.1773071,7.1908188,4.9998169,11.5492401,4.9998169h12.5156097       c1.1502075,0,2.0824127-0.9322052,2.0824127-2.0824051c0-1.1502075-0.9322052-2.0824127-2.0824127-2.0824127H89.9506836       c-3.2122803,0-6.314743-1.3429947-8.5118484-3.6848907L64.27034,64.6093597       C61.2882614,61.4320564,57.0787048,59.609539,52.721096,59.609539z"/></g></g><g><path class="st17" d="M99.8204651,95.5561295l-0.0001907-13.9350357      c-0.0000076-0.6562881,0.7236557-1.0548096,1.2782822-0.7039413l11.0137787,6.967514      c0.516861,0.326973,0.516861,1.0808868,0.0000076,1.4078598l-11.013588,6.967514      C100.5441437,96.6109085,99.8204803,96.21241,99.8204651,95.5561295z"/></g></g></g></g></svg>